<?xml version="1.0" standalone="no"?><!DOCTYPE svg PUBLIC "-//W3C//DTD SVG 1.1//EN" "http://www.w3.org/Graphics/SVG/1.1/DTD/svg11.dtd"><svg t="1527484182684" class="icon" style="" viewBox="0 0 1024 1024" version="1.1" xmlns="http://www.w3.org/2000/svg" p-id="5386" xmlns:xlink="http://www.w3.org/1999/xlink" width="200" height="200"><defs><style type="text/css"></style></defs><path d="M208.3 785.1L123.2 751c-30.5-12.9-42.6-19.2-42.6-42.6v-181c0-22.4 17.6-30.6 39.7-41.2 1.9-0.9 3.9-1.8 5.9-2.6l82.2-32.9v334.4z" fill="#43D8D6" p-id="5387"></path><path d="M291.2 785.1h-79V450.8h79c3.6 0 6.5 2.9 6.5 6.5v321.2c0 3.7-2.9 6.6-6.5 6.6zM766.3 785.1h79V450.8h-79c-3.6 0-6.5 2.9-6.5 6.5v321.2c0 3.7 2.9 6.6 6.5 6.6z" fill="#54B0E6" p-id="5388"></path><path d="M344.4 758.5h-47v-281h47c3.4 0 6.2 2.8 6.2 6.2v268.5c0 3.5-2.8 6.3-6.2 6.3z" fill="#FDD65D" p-id="5389"></path><path d="M844.6 785.1l85.2-34.1c30.5-12.9 42.6-19.2 42.6-42.6v-181c0-22.4-17.6-30.6-39.7-41.2-1.9-0.9-3.9-1.8-5.9-2.6l-82.2-32.9v334.4z" fill="#43D8D6" p-id="5390"></path><path d="M712.8 758.5h47v-281h-47c-3.4 0-6.3 2.8-6.3 6.2v268.5c0 3.5 2.9 6.3 6.3 6.3z" fill="#FDD65D" p-id="5391"></path><path d="M845.3 440.2h-57.7c-17.1 0-31.6 11.2-36.6 26.6h-17.8c-20.5 0-37.3 16.7-37.3 37.3v227.8c0 20.5 16.7 37.3 37.3 37.3H751c5 15.4 19.5 26.6 36.6 26.6h57.7c5.9 0 10.6-4.8 10.6-10.6V450.8c0-5.9-4.7-10.6-10.6-10.6zM717.2 731.9V504.1c0-8.8 7.2-16 16-16h16v259.8h-16c-8.8-0.1-16-7.2-16-16z m117.4 42.6h-47.1c-9.4 0-17.1-7.7-17.1-17.1V478.6c0-9.4 7.7-17.1 17.1-17.1h47.1v313z" fill="#2D415C" p-id="5392"></path><path d="M938.4 477.2l-1.1-0.5c-2.1-1-4.3-2-6.5-2.9l-61-24.4c-0.3-89.9-33.3-171.9-87.4-234.1 2.4-7.3 0.7-15.5-4.9-21.4C710.9 125 622.3 87.1 528.1 87.1S345.3 125 278.7 193.9c-5.7 5.9-7.3 14.1-4.9 21.4-53.7 61.9-86.7 143.5-87.3 232.8l-64.3 25.7c-2.2 0.9-4.4 1.8-6.5 2.9l-1.1 0.5c-22 10.6-44.7 21.5-44.7 50.3v181c0 31.6 20.6 40.3 49.3 52.5l85.2 34.1c1.3 0.5 2.6 0.8 4 0.8 0.6 0 1.3-0.1 1.9-0.2 0.7 0.1 1.3 0.2 2 0.2H270c17.1 0 31.6-11.2 36.6-26.6H324c20.5 0 37.3-16.7 37.3-37.3V504.1c0-20.5-16.7-37.3-37.3-37.3h-17.5c-5-15.4-19.5-26.6-36.6-26.6h-57.7c-0.7 0-1.3 0.1-2 0.2-0.8-0.1-1.6-0.2-2.4-0.2 2.5-80.8 33-154.4 81.7-210.7 1.4 0.3 2.9 0.5 4.4 0.5 5.6 0 11.1-2.2 15.3-6.5 58.5-60.5 136.2-93.8 218.8-93.8 82.6 0 160.3 33.3 218.8 93.8 5.3 5.5 12.8 7.5 19.7 6 48.9 56.5 79.4 130.3 81.8 211.4-3.2-1.2-6.8-0.8-9.7 1.1-2.9 2-4.7 5.3-4.7 8.8v326c-1.6 1.3-2.9 3.2-3.5 5.3-0.4 1.3-36.1 132.3 74.3 173.6 1.2 0.5 2.5 0.7 3.7 0.7 4.3 0 8.4-2.6 10-6.9 2.1-5.5-0.7-11.6-6.2-13.7-80-29.9-68.2-116.3-62.9-141.2l84.6-33.8c28.5-12.1 49.1-20.8 49.1-52.4v-181c0-28.7-22.7-39.6-44.6-50.2zM197.7 769.4l-70.4-28.1c-31.7-13.4-36.1-17.4-36.1-32.8v-181c0-14.7 10.6-20.5 32.6-31.1l1-0.5c1.7-0.8 3.5-1.6 5.2-2.3l67.6-27v302.8z m110.7-281.3H324c8.8 0 16 7.2 16 16v227.8c0 8.8-7.2 16-16 16h-15.6V488.1z m-85.5-26.6H270c8.3 0 15.2 5.9 16.8 13.8v285.4c-1.6 7.9-8.5 13.8-16.8 13.8h-47.1v-313z m738.8 247c0 15.4-4.4 19.3-35.9 32.7l-70.6 28.2V466.5l67.6 27c1.8 0.7 3.5 1.5 5.2 2.3l1.1 0.5c22 10.6 32.6 16.3 32.6 31.1v181.1z" fill="#2D415C" p-id="5393"></path></svg>